<svg width="180" height="180" viewBox="0 0 180 180" fill="none" xmlns="http://www.w3.org/2000/svg">
<rect x="2.90332" y="3.07458" width="174.194" height="173.851" rx="86.9254" fill="white"/>
<path d="M146.772 43.5505L137.633 34.5505L126.399 45.5952C116.497 37.9308 103.9 33.3871 90.0001 33.3871C57.4402 33.3871 31.9355 58.2552 31.9355 90.0012C31.9355 103.732 36.7135 116.173 44.764 125.874L33.7102 136.742L42.8625 145.729L54.0458 134.744C63.8709 142.202 76.3059 146.613 90.0001 146.613C122.56 146.613 148.065 121.745 148.065 89.9987C148.065 76.47 143.421 64.1994 135.584 54.5478L146.772 43.5505ZM89.9899 47.4451C100.16 47.4451 106.086 53.9536 109.516 62.1897L66.8794 104.114C66.2137 99.4385 65.8836 94.7225 65.8918 90.0012C65.8918 77.2064 68.2402 47.4451 89.9899 47.4451ZM113.197 76.5673C113.797 81.0208 114.095 85.5088 114.088 90.0012C114.088 102.796 111.74 132.56 89.9899 132.56C80.0455 132.56 74.1657 126.318 70.6952 118.354L113.197 76.5673Z" fill="black"/>
</svg>
